<?xml version="1.0" encoding="utf-8"?>
<!-- Generator: Adobe Illustrator 22.1.0, SVG Export Plug-In . SVG Version: 6.00 Build 0)  -->
<svg version="1.1" id="Слой_1" xmlns="http://www.w3.org/2000/svg" xmlns:xlink="http://www.w3.org/1999/xlink" x="0px" y="0px"
	 viewBox="0 0 160 72.4" style="enable-background:new 0 0 160 72.4;" xml:space="preserve">
<style type="text/css">
	.st0{clip-path:url(#SVGID_2_);}
	.st1{fill:#FF6319;}
	.st2{clip-path:url(#SVGID_4_);}
	.st3{clip-path:url(#SVGID_6_);}
	.st4{clip-path:url(#SVGID_8_);}
	.st5{clip-path:url(#SVGID_10_);}
	.st6{clip-path:url(#SVGID_12_);}
</style>
<g>
	<g>
		<g>
			<path d="M68,29.4c-0.2,0-0.5,0-0.7,0h-0.2l-2.2,10.1h-9.4l7.4-34h8.4c5,0,8.6,1.1,10.7,3.2c1.6,1.6,2.4,3.8,2.4,6.6
				c0,3.8-1.1,7-3.4,9.3c-1,1-2.3,1.9-3.8,2.5l2.9,12.5H70L68,29.4z M69.8,22.2c1.6,0,2.5-0.5,3.3-1.2c1-1,1.6-3.1,1.6-4.3
				c0-1-0.2-1.8-0.8-2.2c-0.5-0.5-1.2-0.7-2.2-0.7h-1.1l-1.8,8.5L69.8,22.2L69.8,22.2z"/>
			<g>
				<g>
					<defs>
						<path id="SVGID_1_" d="M68,29.4c-0.2,0-0.5,0-0.7,0h-0.2l-2.2,10.1h-9.4l7.4-34h8.4c5,0,8.6,1.1,10.7,3.2
							c1.6,1.6,2.4,3.8,2.4,6.6c0,3.8-1.1,7-3.4,9.3c-1,1-2.3,1.9-3.8,2.5l2.9,12.5H70L68,29.4z M69.8,22.2c1.6,0,2.5-0.5,3.3-1.2
							c1-1,1.6-3.1,1.6-4.3c0-1-0.2-1.8-0.8-2.2c-0.5-0.5-1.2-0.7-2.2-0.7h-1.1l-1.8,8.5L69.8,22.2L69.8,22.2z"/>
					</defs>
					<clipPath id="SVGID_2_">
						<use xlink:href="#SVGID_1_"  style="overflow:visible;"/>
					</clipPath>
					<g class="st0">
						<rect x="4" y="32.4" class="st1" width="140.6" height="2"/>
						<rect x="4" y="36.1" class="st1" width="140.6" height="2"/>
					</g>
				</g>
			</g>
		</g>
		<g>
			<path d="M88.3,27.4L84.6,5.6h9.6l1,11.3L101,5.6h10.2L97.7,27.8l-2.6,11.8h-9.5L88.3,27.4z"/>
			<g>
				<g>
					<defs>
						<polygon id="SVGID_3_" points="88.3,27.4 84.6,5.6 94.3,5.6 95.2,16.8 101,5.6 111.2,5.6 97.7,27.8 95.1,39.6 85.6,39.6 
													"/>
					</defs>
					<clipPath id="SVGID_4_">
						<use xlink:href="#SVGID_3_"  style="overflow:visible;"/>
					</clipPath>
					<g class="st2">
						<rect x="4" y="32.4" class="st1" width="140.6" height="2"/>
						<rect x="4" y="36.1" class="st1" width="140.6" height="2"/>
					</g>
				</g>
			</g>
		</g>
		<g>
			<path d="M111.8,5.6h19.8l-1.9,8.7h-10.3l-1,4.7h9.4l-1.8,8.2h-9.3l-2.7,12.5h-9.5L111.8,5.6z"/>
			<g>
				<g>
					<defs>
						<polygon id="SVGID_5_" points="111.8,5.6 131.6,5.6 129.7,14.3 119.4,14.3 118.4,18.9 127.8,18.9 125.9,27.2 116.6,27.2 
							113.9,39.6 104.4,39.6 						"/>
					</defs>
					<clipPath id="SVGID_6_">
						<use xlink:href="#SVGID_5_"  style="overflow:visible;"/>
					</clipPath>
					<g class="st3">
						<rect x="4" y="32.4" class="st1" width="140.6" height="2"/>
						<rect x="4" y="36.1" class="st1" width="140.6" height="2"/>
					</g>
				</g>
			</g>
		</g>
		<g>
			<path d="M137.2,14.3h-6.4l1.9-8.7H155l-1.9,8.7h-6.4l-5.5,25.3h-9.5L137.2,14.3z"/>
			<g>
				<g>
					<defs>
						<polygon id="SVGID_7_" points="137.2,14.3 130.8,14.3 132.8,5.6 155,5.6 153.1,14.3 146.7,14.3 141.2,39.6 131.7,39.6 						
							"/>
					</defs>
					<clipPath id="SVGID_8_">
						<use xlink:href="#SVGID_7_"  style="overflow:visible;"/>
					</clipPath>
					<g class="st4">
						<rect x="4" y="32.4" class="st1" width="140.6" height="2"/>
						<rect x="4" y="36.1" class="st1" width="140.6" height="2"/>
					</g>
				</g>
			</g>
		</g>
		<g>
			<path d="M35.7,5.6h9.5l-2.7,12.6h5.7l2.7-12.6h9.5l-7.4,34h-9.5l2.8-12.7h-5.7l-2.8,12.7h-9.5L35.7,5.6z"/>
			<g>
				<g>
					<defs>
						<polygon id="SVGID_9_" points="35.7,5.6 45.2,5.6 42.5,18.1 48.2,18.1 50.9,5.6 60.4,5.6 53,39.6 43.5,39.6 46.3,26.9 
							40.6,26.9 37.8,39.6 28.3,39.6 						"/>
					</defs>
					<clipPath id="SVGID_10_">
						<use xlink:href="#SVGID_9_"  style="overflow:visible;"/>
					</clipPath>
					<g class="st5">
						<rect x="4" y="32.4" class="st1" width="140.6" height="2"/>
						<rect x="4" y="36.1" class="st1" width="140.6" height="2"/>
					</g>
				</g>
			</g>
		</g>
		<g>
			<path d="M5,35.8L9.2,28c2.5,2.3,5.2,3.6,7.5,3.6c1.5,0,2.4-0.7,2.4-1.9c0-1.1-0.8-1.7-3.1-3.3c-4-2.7-6.3-5.4-6.3-9.7
				c0-3.5,1.2-6.4,3.4-8.5c2.1-2.1,5.1-3.4,9-3.4c3.9,0,7.5,1.5,10.5,4l-4.7,7.3c-1.5-1.3-3.7-2.8-6-2.8c-1.6,0-2.4,0.7-2.4,1.8
				c0,1.1,0.7,1.8,3.6,3.8c3.5,2.4,5.7,4.9,5.7,9.4c0,3.2-1.2,6.1-3.4,8.3c-2.1,2.1-5.1,3.3-9,3.3C12.2,40.2,8.4,38.6,5,35.8z"/>
			<g>
				<g>
					<defs>
						<path id="SVGID_11_" d="M5,35.8L9.2,28c2.5,2.3,5.2,3.6,7.5,3.6c1.5,0,2.4-0.7,2.4-1.9c0-1.1-0.8-1.7-3.1-3.3
							c-4-2.7-6.3-5.4-6.3-9.7c0-3.5,1.2-6.4,3.4-8.5c2.1-2.1,5.1-3.4,9-3.4c3.9,0,7.5,1.5,10.5,4l-4.7,7.3c-1.5-1.3-3.7-2.8-6-2.8
							c-1.6,0-2.4,0.7-2.4,1.8c0,1.1,0.7,1.8,3.6,3.8c3.5,2.4,5.7,4.9,5.7,9.4c0,3.2-1.2,6.1-3.4,8.3c-2.1,2.1-5.1,3.3-9,3.3
							C12.2,40.2,8.4,38.6,5,35.8z"/>
					</defs>
					<clipPath id="SVGID_12_">
						<use xlink:href="#SVGID_11_"  style="overflow:visible;"/>
					</clipPath>
					<g class="st6">
						<rect x="4" y="32.4" class="st1" width="140.6" height="2"/>
						<rect x="4" y="36.1" class="st1" width="140.6" height="2"/>
					</g>
				</g>
			</g>
		</g>
	</g>
	<g>
		<path d="M11,47.5v6.7h-0.5v-3.2H6.6v3.2H6.1v-6.7h0.5v3h3.9v-3H11z"/>
		<path d="M17.2,49.4v4.8h-0.5V53c-0.4,0.7-1.1,1.2-2,1.2c-1.4,0-2.5-1.1-2.5-2.5c0-1.4,1.1-2.5,2.5-2.5c0.9,0,1.6,0.5,2,1.2v-1.1
			H17.2z M16.7,51.7c0-1.1-0.9-2-2-2c-1.1,0-2,0.9-2,2c0,1.1,0.9,2,2,2C15.8,53.8,16.7,52.9,16.7,51.7z"/>
		<path d="M23.2,53.6v1.7h-0.5v-1.3h-4.1v1.3h-0.5v-1.7h0.6c0.3-0.5,0.5-1,0.5-1.9v-2.4h3.3v4.3H23.2z M22.1,53.6v-3.8h-2.4v1.9
			c0,0.8-0.1,1.4-0.4,1.9H22.1z"/>
		<path d="M24.1,47.8c0-0.2,0.2-0.4,0.4-0.4s0.4,0.2,0.4,0.4c0,0.2-0.2,0.4-0.4,0.4S24.1,48,24.1,47.8z M24.3,49.4h0.5v4.8h-0.5
			V49.4z"/>
		<path d="M30.1,49.4v4.8h-0.5v-3.9l-3,3.9h-0.4v-4.8h0.5v3.9l3-3.9H30.1z M27,48.1h2.4v0.4H27V48.1z"/>
		<path d="M35.5,49.4v4.8H35V52h-3v2.1h-0.5v-4.8h0.5v2.1h3v-2.1H35.5z"/>
		<path d="M40.9,49.4v4.8h-0.5v-3.9l-3,3.9H37v-4.8h0.5v3.9l3-3.9H40.9z"/>
		<path d="M46.3,49.4v4.8h-0.5v-3.9l-3,3.9h-0.4v-4.8h0.5v3.9l3-3.9H46.3z M43.1,48.1h2.4v0.4h-2.4V48.1z"/>
		<path d="M54.2,54.1h-0.5v-4.3h-3v4.3h-0.5v-4.8h3.9V54.1z"/>
		<path d="M55.3,51.7c0-1.4,1.1-2.5,2.5-2.5c1.4,0,2.5,1.1,2.5,2.5c0,1.4-1.1,2.5-2.5,2.5C56.5,54.2,55.3,53.1,55.3,51.7z
			 M59.9,51.7c0-1.1-0.9-2-2-2c-1.1,0-2,0.9-2,2c0,1.1,0.9,2,2,2C59,53.8,59.9,52.9,59.9,51.7z"/>
		<path d="M65.1,54.1h-0.5v-4.3h-2.4v2.3c0,1.7-0.7,2.1-1.6,2v-0.4c0.7,0.1,1.1-0.3,1.1-1.5v-2.8h3.3V54.1z"/>
		<path d="M66.5,47.8c0-0.2,0.2-0.4,0.4-0.4s0.4,0.2,0.4,0.4c0,0.2-0.2,0.4-0.4,0.4S66.5,48,66.5,47.8z M66.6,49.4h0.5v4.8h-0.5
			V49.4z"/>
		<path d="M71.5,49.8H69v4.3h-0.5v-4.8h3V49.8z"/>
		<path d="M77.3,51.7c0,1.4-1.1,2.5-2.5,2.5c-0.9,0-1.7-0.5-2-1.2v3h-0.5v-6.7h0.5v1.1c0.4-0.7,1.1-1.2,2-1.2
			C76.2,49.3,77.3,50.3,77.3,51.7z M76.9,51.7c0-1.1-0.9-2-2-2c-1.1,0-2,0.9-2,2c0,1.1,0.9,2,2,2C76,53.8,76.9,52.9,76.9,51.7z"/>
		<path d="M83.2,49.4v4.8h-0.5V53c-0.4,0.7-1.1,1.2-2,1.2c-1.3,0-2.5-1.1-2.5-2.5c0-1.4,1.1-2.5,2.5-2.5c0.9,0,1.6,0.5,2,1.2v-1.1
			H83.2z M82.7,51.7c0-1.1-0.9-2-2-2s-2,0.9-2,2c0,1.1,0.9,2,2,2S82.7,52.9,82.7,51.7z"/>
		<path d="M87.3,54.2V56h-0.5v-1.8c-1.5-0.1-2.5-1.1-2.5-2.5c0-1.3,1-2.4,2.5-2.5v-1.8h0.5v1.8c1.5,0.1,2.5,1.1,2.5,2.5
			C89.8,53.1,88.8,54.1,87.3,54.2z M86.8,53.8v-4c-1.3,0.1-2.1,0.9-2.1,2C84.8,52.8,85.6,53.7,86.8,53.8z M89.4,51.7
			c0-1.1-0.8-1.9-2.1-2v4C88.6,53.7,89.4,52.8,89.4,51.7z"/>
		<path d="M90.8,47.8c0-0.2,0.2-0.4,0.4-0.4s0.4,0.2,0.4,0.4c0,0.2-0.2,0.4-0.4,0.4S90.8,48,90.8,47.8z M91,49.4h0.5v4.8H91V49.4z"
			/>
		<path d="M96.6,49.4v4.8h-0.5v-1.9c-0.4,0.2-0.9,0.3-1.4,0.3c-1.2,0-1.9-0.6-1.9-1.7v-1.5h0.5v1.5c0,0.8,0.5,1.2,1.4,1.2
			c0.5,0,1-0.1,1.5-0.3v-2.4H96.6z"/>
		<path d="M101.9,49.4v4.8h-0.5V52h-3v2.1H98v-4.8h0.5v2.1h3v-2.1H101.9z"/>
		<path d="M107.3,49.4v4.8h-0.5v-3.9l-3,3.9h-0.4v-4.8h0.5v3.9l3-3.9H107.3z"/>
		<path d="M112.7,49.4v4.8h-0.5v-3.9l-3,3.9h-0.4v-4.8h0.5v3.9l3-3.9H112.7z M109.5,48.1h2.4v0.4h-2.4V48.1z"/>
		<path d="M120.6,54.1h-0.5v-4.3h-3v4.3h-0.5v-4.8h3.9V54.1z"/>
		<path d="M126.8,49.4v4.8h-0.5V53c-0.4,0.7-1.1,1.2-2,1.2c-1.4,0-2.5-1.1-2.5-2.5c0-1.4,1.1-2.5,2.5-2.5c0.9,0,1.6,0.5,2,1.2v-1.1
			H126.8z M126.3,51.7c0-1.1-0.9-2-2-2c-1.1,0-2,0.9-2,2c0,1.1,0.9,2,2,2C125.4,53.8,126.3,52.9,126.3,51.7z"/>
		<path d="M133.2,51.7c0,1.4-1.1,2.5-2.5,2.5c-0.9,0-1.7-0.5-2-1.2v3h-0.5v-6.7h0.5v1.1c0.4-0.7,1.1-1.2,2-1.2
			C132.1,49.3,133.2,50.3,133.2,51.7z M132.7,51.7c0-1.1-0.9-2-2-2s-2,0.9-2,2c0,1.1,0.9,2,2,2S132.7,52.9,132.7,51.7z"/>
		<path d="M137.5,49.8h-1.7v4.3h-0.5v-4.3h-1.7v-0.5h3.9V49.8z"/>
		<path d="M142.3,49.4v4.8h-0.5V52h-3v2.1h-0.5v-4.8h0.5v2.1h3v-2.1H142.3z"/>
		<path d="M148.2,51.8c0,0.1,0,0.2,0,0.2h-4.3c0.1,1.1,0.9,1.8,2,1.8c0.8,0,1.4-0.4,1.6-0.9l0.4,0.2c-0.4,0.6-1.1,1.1-2.1,1.1
			c-1.5,0-2.5-1-2.5-2.5c0-1.4,1-2.5,2.5-2.5C147.3,49.3,148.2,50.5,148.2,51.8z M143.9,51.5h3.8c-0.1-1.2-0.9-1.8-1.9-1.8
			C144.8,49.7,144,50.5,143.9,51.5z"/>
		<path d="M154.3,51.7c0,1.4-1.1,2.5-2.5,2.5c-0.9,0-1.7-0.5-2-1.2v3h-0.5v-6.7h0.5v1.1c0.4-0.7,1.1-1.2,2-1.2
			C153.2,49.3,154.3,50.3,154.3,51.7z M153.8,51.7c0-1.1-0.9-2-2-2s-2,0.9-2,2c0,1.1,0.9,2,2,2S153.8,52.9,153.8,51.7z"/>
		<path d="M47.6,65v1.7h-0.5v-1.3h-6.5v-4.8h0.5V65h2.4v-4.3h0.5V65h2.4v-4.3H47V65H47.6z"/>
		<path d="M48.2,63.1c0-1.4,1.1-2.5,2.5-2.5c1.4,0,2.5,1.1,2.5,2.5c0,1.4-1.1,2.5-2.5,2.5C49.3,65.6,48.2,64.5,48.2,63.1z
			 M52.7,63.1c0-1.1-0.9-2-2-2s-2,0.9-2,2c0,1.1,0.9,2,2,2S52.7,64.3,52.7,63.1z"/>
		<path d="M60,64.2c0,0.7-0.6,1.4-1.7,1.4c-1.1,0-1.6-0.5-1.9-1.1l0.4-0.2c0.2,0.5,0.6,0.9,1.4,0.9c0.8,0,1.3-0.4,1.3-1
			c0-0.5-0.4-0.9-1-0.9h-0.7v-0.5h0.5c0.6,0,1-0.3,1-0.9c0-0.5-0.4-0.9-1.1-0.9c-0.6,0-1.1,0.3-1.3,0.8l-0.4-0.2
			c0.3-0.6,0.8-1,1.7-1c1,0,1.6,0.6,1.6,1.3c0,0.5-0.2,0.9-0.7,1.1C59.7,63.3,60,63.7,60,64.2z"/>
		<path d="M65.7,60.8v4.8h-0.5v-1.1c-0.4,0.7-1.1,1.2-2,1.2c-1.3,0-2.5-1.1-2.5-2.5c0-1.4,1.1-2.5,2.5-2.5c0.9,0,1.6,0.5,2,1.2v-1.1
			H65.7z M65.2,63.1c0-1.1-0.9-2-2-2s-2,0.9-2,2c0,1.1,0.9,2,2,2S65.2,64.3,65.2,63.1z"/>
		<path d="M70.9,64.2c0,0.7-0.5,1.3-1.5,1.3h-2.3v-4.8h2.1c0.9,0,1.4,0.6,1.4,1.2c0,0.5-0.2,0.9-0.6,1.1
			C70.7,63.2,70.9,63.7,70.9,64.2z M67.7,61.2v1.6h1.6c0.6,0,0.9-0.3,0.9-0.8c0-0.5-0.3-0.8-0.9-0.8H67.7z M70.5,64.2
			c0-0.5-0.4-0.8-1-0.8h-1.8V65h1.8C70.1,65,70.5,64.7,70.5,64.2z"/>
		<path d="M76.6,65.5l-2.1-2.3v2.3H74v-2.3l-2.1,2.3h-0.6l2.3-2.5l-2.2-2.3H72l2,2.1v-2.1h0.5v2.1l2-2.1h0.6L74.9,63l2.2,2.5H76.6z"
			/>
		<path d="M82.7,65v1.7h-0.5v-1.3h-4.1v1.3h-0.5V65h0.6c0.3-0.5,0.5-1,0.5-1.9v-2.4H82V65H82.7z M81.5,65v-3.8h-2.4v1.9
			c0,0.8-0.1,1.4-0.4,1.9H81.5z"/>
		<path d="M87.6,60.8v4.8h-0.5v-3.9l-3,3.9h-0.4v-4.8h0.5v3.9l3-3.9H87.6z"/>
		<path d="M95.6,65.5h-0.5v-4.3h-3v4.3h-0.5v-4.8h3.9V65.5z"/>
		<path d="M96.7,63.1c0-1.4,1.1-2.5,2.5-2.5c1.4,0,2.5,1.1,2.5,2.5c0,1.4-1.1,2.5-2.5,2.5C97.8,65.6,96.7,64.5,96.7,63.1z
			 M101.2,63.1c0-1.1-0.9-2-2-2c-1.1,0-2,0.9-2,2c0,1.1,0.9,2,2,2C100.3,65.2,101.2,64.3,101.2,63.1z"/>
		<path d="M107.8,63.1c0,1.4-1.1,2.5-2.5,2.5c-0.9,0-1.7-0.5-2-1.2v3h-0.5v-6.7h0.5v1.1c0.4-0.7,1.1-1.2,2-1.2
			C106.7,60.7,107.8,61.7,107.8,63.1z M107.3,63.1c0-1.1-0.9-2-2-2s-2,0.9-2,2c0,1.1,0.9,2,2,2S107.3,64.3,107.3,63.1z"/>
		<path d="M112.8,60.8l-2.1,5.2c-0.4,0.9-1.1,1.5-1.9,1.5V67c0.6,0.1,1.1-0.4,1.4-1.1l0.1-0.3l-2.2-4.8h0.5l1.9,4.2l1.7-4.2H112.8z"
			/>
		<path d="M117.2,60.8v4.8h-0.5v-1.9c-0.4,0.2-0.9,0.3-1.4,0.3c-1.2,0-1.9-0.6-1.9-1.7v-1.5h0.5v1.5c0,0.8,0.5,1.2,1.4,1.2
			c0.5,0,1-0.1,1.5-0.3v-2.4H117.2z"/>
		<path d="M118.6,65.2c0-0.2,0.2-0.4,0.4-0.4c0.2,0,0.4,0.2,0.4,0.4c0,0.2-0.2,0.4-0.4,0.4C118.8,65.6,118.6,65.4,118.6,65.2z
			 M118.7,60.8v-1.9h0.6v1.9l-0.1,3h-0.4L118.7,60.8z"/>
	</g>
</g>
</svg>
